<!DOCTYPE svg PUBLIC "-//W3C//DTD SVG 1.1//EN" "http://www.w3.org/Graphics/SVG/1.1/DTD/svg11.dtd">
<!-- Uploaded to: SVG Repo, www.svgrepo.com, Transformed by: SVG Repo Mixer Tools -->
<svg height="64px" width="64px" version="1.1" id="Layer_1" xmlns="http://www.w3.org/2000/svg" xmlns:xlink="http://www.w3.org/1999/xlink" viewBox="0 0 512.002 512.002" xml:space="preserve" fill="#000000">
<g id="SVGRepo_bgCarrier" stroke-width="0"/>
<g id="SVGRepo_tracerCarrier" stroke-linecap="round" stroke-linejoin="round"/>
<g id="SVGRepo_iconCarrier"> <g> <path style="fill:#546A79;" d="M499.321,207.502l-0.529,0.106l-89.734-4.388l-0.857-99.431l32.527-12.732l0.317-0.285 C469.988,123.171,490.555,163.206,499.321,207.502z"/> <path style="fill:#546A79;" d="M438.815,393.23l8.227,21.022c-29.217,35.234-67.993,62.251-112.353,77.077l5.763-98.098 L438.815,393.23L438.815,393.23z"/> <path style="fill:#546A79;" d="M171.548,393.23l5.763,98.098c-44.359-14.825-83.136-41.843-112.353-77.077l8.227-21.022H171.548z"/> <polygon style="fill:#546A79;" points="329.888,256.006 292.942,340.453 255.995,340.453 219.048,340.453 182.101,256.006 255.995,187.389 "/> <path style="fill:#546A79;" d="M329.37,18.961l-73.375,68.141l-73.376-68.131c23.19-7.18,47.828-11.04,73.375-11.04 S306.181,11.791,329.37,18.961z"/> <path style="fill:#546A79;" d="M103.798,103.788l-0.867,99.431l-89.723,4.388l-0.529-0.106 c8.766-44.296,29.333-84.331,58.275-116.73l0.328,0.296L103.798,103.788z"/> </g> <g> <path style="fill:#E7ECED;" d="M292.942,340.453l47.511,52.777l-5.763,98.098c-24.723,8.269-51.19,12.742-78.694,12.742 s-53.961-4.473-78.684-12.742l-5.763-98.098l47.5-52.777h36.947H292.942z"/> <path style="fill:#E7ECED;" d="M499.321,207.502c3.119,15.682,4.748,31.903,4.748,48.505c0,60.147-21.413,115.303-57.028,158.245 l-8.227-21.022h-98.363l-47.511-52.777l36.947-84.447l79.17-52.787l89.734,4.388L499.321,207.502z"/> <path style="fill:#E7ECED;" d="M441.046,90.771l-0.317,0.285l-32.527,12.732l0.857,99.431l-79.17,52.787l-73.894-68.617V87.102 l73.375-68.141C372.947,32.433,411.385,57.589,441.046,90.771z"/> <path style="fill:#E7ECED;" d="M255.995,87.102v100.287l-73.894,68.617l-79.17-52.787l0.867-99.431L71.282,91.067l-0.328-0.296 c29.661-33.182,68.099-58.339,111.665-71.8L255.995,87.102z"/> <path style="fill:#E7ECED;" d="M182.101,256.006l36.947,84.447l-47.5,52.777H73.185l-8.227,21.022 C29.344,371.309,7.931,316.153,7.931,256.006c0-16.602,1.628-32.823,4.748-48.505l0.529,0.106l89.723-4.388L182.101,256.006z"/> </g> <path d="M507.102,205.962c-8.839-44.665-29.636-86.324-60.143-120.477c-31.091-34.781-70.942-60.405-115.246-74.102 c-24.431-7.552-49.907-11.382-75.719-11.382c-25.826,0-51.303,3.833-75.717,11.393C135.983,25.081,96.135,50.701,65.04,85.488 c-30.506,34.15-51.303,75.81-60.14,120.466C1.649,222.301,0,239.14,0,256.006c0,59.55,20.901,117.547,58.854,163.308 c30.61,36.913,70.702,64.416,115.943,79.535c26.091,8.726,53.41,13.151,81.199,13.151c27.796,0,55.119-4.425,81.208-13.151 c45.241-15.12,85.334-42.623,115.944-79.535c37.954-45.762,58.855-103.759,58.855-163.308 C512,239.143,510.352,222.306,507.102,205.962z M438.836,100.315c24.404,28.642,41.722,62.555,50.533,98.892l-72.444-3.542 l-0.744-86.481L438.836,100.315z M427.363,87.772l-27.137,10.622L401.092,199l-70.394,46.935l-66.773-62.004V90.561l67.442-62.631 C367.607,39.897,400.517,60.434,427.363,87.772z M287.755,332.522h-63.52l-32.611-74.535l64.371-59.775l64.37,59.775 L287.755,332.522z M313.574,22.812L255.994,76.28l-57.578-53.463c18.744-4.617,38.052-6.955,57.58-6.955 C275.514,15.863,294.823,18.198,313.574,22.812z M180.626,27.938l67.438,62.621v93.371l-66.772,62.004L110.899,199l0.878-100.607 L84.634,87.776C111.483,60.432,144.39,39.899,180.626,27.938z M73.16,100.319l22.66,8.866l-0.754,86.48l-72.433,3.542 C31.442,162.871,48.758,128.959,73.16,100.319z M19.315,215.25l81.391-3.981l75.061,50.047l33.966,77.633l-41.717,46.351H67.772 l-5.128,13.102c-30.25-41.069-46.783-91.113-46.783-142.394C15.862,242.304,17.025,228.626,19.315,215.25z M74.068,412.737 l4.53-11.577h85.471l4.618,78.609C132.245,465.548,99.791,442.578,74.068,412.737z M184.91,485.439l-5.25-89.367l42.92-47.688h66.83 l42.931,47.689l-5.25,89.366c-22.924,7.1-46.813,10.7-71.096,10.7C231.719,496.139,207.834,492.539,184.91,485.439z M343.313,479.769l4.618-78.609h85.472l4.53,11.576C412.21,442.577,379.756,465.547,343.313,479.769z M449.354,398.402 l-5.126-13.102H343.983l-41.726-46.352l33.965-77.633l75.06-50.046l81.404,3.981c2.289,13.373,3.454,27.052,3.454,40.757 C496.138,307.288,479.605,357.332,449.354,398.402z"/> </g>
</svg>