<!DOCTYPE svg PUBLIC "-//W3C//DTD SVG 1.1//EN" "http://www.w3.org/Graphics/SVG/1.1/DTD/svg11.dtd">
<!-- Uploaded to: SVG Repo, www.svgrepo.com, Transformed by: SVG Repo Mixer Tools -->
<svg height="64px" width="64px" version="1.1" id="Layer_1" xmlns="http://www.w3.org/2000/svg" xmlns:xlink="http://www.w3.org/1999/xlink" viewBox="0 0 512 512" xml:space="preserve" fill="#000000">
<g id="SVGRepo_bgCarrier" stroke-width="0"/>
<g id="SVGRepo_tracerCarrier" stroke-linecap="round" stroke-linejoin="round"/>
<g id="SVGRepo_iconCarrier"> <g> <path style="fill:#72C63F;" d="M415.488,65.995c-43.122,36.228-98.754,58.053-159.483,58.053 c-60.739,0-116.371-21.825-159.493-58.053c43.122-36.238,98.754-58.064,159.493-58.064 C316.734,7.931,372.376,29.756,415.488,65.995z"/> <path style="fill:#72C63F;" d="M382.676,324.612v144.721c-37.074,22.069-80.397,34.737-126.67,34.737 c-46.284,0-89.607-12.679-126.681-34.747v-144.71c0-69.96,56.721-126.67,126.681-126.67S382.676,254.652,382.676,324.612z"/> </g> <path style="fill:#8DC63F;" d="M415.488,65.995c54.162,45.501,88.581,113.727,88.581,190c0,90.728-48.706,170.089-121.394,213.338 V324.612c0-69.96-56.71-126.67-126.67-126.67s-126.681,56.71-126.681,126.67v144.71C56.636,426.073,7.931,346.723,7.931,255.995 c0-76.273,34.42-144.499,88.581-190c43.122,36.228,98.754,58.053,159.493,58.053C316.734,124.048,372.366,102.222,415.488,65.995z"/> <path d="M420.589,59.922l0.001,0.001C374.619,21.281,316.168,0,256.005,0C195.847,0,137.393,21.281,91.411,59.922 C33.318,108.726,0,180.191,0,255.995c0,45.185,11.934,89.604,34.513,128.454c21.905,37.69,53.288,69.395,90.754,91.688 C164.681,499.599,209.889,512,256.005,512c46.119,0,91.324-12.397,130.726-35.852c37.468-22.293,68.851-54,90.757-91.694 C500.066,345.602,512,301.181,512,255.995C512,180.191,478.682,108.726,420.589,59.922z M402.842,65.994 c-41.892,32.385-93.654,50.124-146.837,50.124c-53.188,0-104.954-17.738-146.846-50.124c41.888-32.39,93.654-50.132,146.846-50.132 C309.201,15.862,360.963,33.603,402.842,65.994z M137.255,464.76V324.612c0-65.473,53.272-118.74,118.75-118.74 c65.473,0,118.74,53.266,118.74,118.74v140.159c-36.026,20.533-76.978,31.368-118.74,31.368 C214.249,496.138,173.293,485.3,137.255,464.76z M463.773,376.483c-18.17,31.265-43.297,58.128-73.167,78.393V324.612 c0-74.219-60.382-134.601-134.601-134.601c-74.226,0-134.612,60.382-134.612,134.601v130.254 c-29.87-20.264-54.998-47.126-73.167-78.388c-21.174-36.431-32.365-78.094-32.365-120.483c0-68.923,29.366-134.022,80.799-179.649 c45.145,35.918,101.456,55.633,159.346,55.633c57.883,0,114.19-19.715,159.334-55.633c51.432,45.626,80.799,110.726,80.799,179.649 C496.138,298.385,484.947,340.049,463.773,376.483z"/> </g>
</svg>