<svg id="visual" viewBox="0 0 960 540" width="960" height="540" xmlns="http://www.w3.org/2000/svg" xmlns:xlink="http://www.w3.org/1999/xlink" version="1.1"><rect x="0" y="0" width="960" height="540" fill="#ffffff"></rect><path d="M0 203L20 212.5C40 222 80 241 120 237.3C160 233.7 200 207.3 240 196C280 184.7 320 188.3 360 204.5C400 220.7 440 249.3 480 265C520 280.7 560 283.3 600 286C640 288.7 680 291.3 720 276.3C760 261.3 800 228.7 840 213.2C880 197.7 920 199.3 940 200.2L960 201L960 541L940 541C920 541 880 541 840 541C800 541 760 541 720 541C680 541 640 541 600 541C560 541 520 541 480 541C440 541 400 541 360 541C320 541 280 541 240 541C200 541 160 541 120 541C80 541 40 541 20 541L0 541Z" fill="#a9fdbf"></path><path d="M0 310L20 301.8C40 293.7 80 277.3 120 274.5C160 271.7 200 282.3 240 297.3C280 312.3 320 331.7 360 325.8C400 320 440 289 480 286C520 283 560 308 600 313.7C640 319.3 680 305.7 720 298.3C760 291 800 290 840 287C880 284 920 279 940 276.5L960 274L960 541L940 541C920 541 880 541 840 541C800 541 760 541 720 541C680 541 640 541 600 541C560 541 520 541 480 541C440 541 400 541 360 541C320 541 280 541 240 541C200 541 160 541 120 541C80 541 40 541 20 541L0 541Z" fill="#83dead"></path><path d="M0 338L20 334C40 330 80 322 120 328.5C160 335 200 356 240 354.7C280 353.3 320 329.7 360 330.7C400 331.7 440 357.3 480 361.2C520 365 560 347 600 341C640 335 680 341 720 343.2C760 345.3 800 343.7 840 347C880 350.3 920 358.7 940 362.8L960 367L960 541L940 541C920 541 880 541 840 541C800 541 760 541 720 541C680 541 640 541 600 541C560 541 520 541 480 541C440 541 400 541 360 541C320 541 280 541 240 541C200 541 160 541 120 541C80 541 40 541 20 541L0 541Z" fill="#5ebf9a"></path><path d="M0 378L20 381.7C40 385.3 80 392.7 120 403C160 413.3 200 426.7 240 429.8C280 433 320 426 360 420.2C400 414.3 440 409.7 480 407C520 404.3 560 403.7 600 409C640 414.3 680 425.7 720 420C760 414.3 800 391.7 840 388C880 384.3 920 399.7 940 407.3L960 415L960 541L940 541C920 541 880 541 840 541C800 541 760 541 720 541C680 541 640 541 600 541C560 541 520 541 480 541C440 541 400 541 360 541C320 541 280 541 240 541C200 541 160 541 120 541C80 541 40 541 20 541L0 541Z" fill="#39a187"></path><path d="M0 447L20 444.5C40 442 80 437 120 444.3C160 451.7 200 471.3 240 475.3C280 479.3 320 467.7 360 468C400 468.3 440 480.7 480 482C520 483.3 560 473.7 600 470.5C640 467.3 680 470.7 720 469.2C760 467.7 800 461.3 840 459.2C880 457 920 459 940 460L960 461L960 541L940 541C920 541 880 541 840 541C800 541 760 541 720 541C680 541 640 541 600 541C560 541 520 541 480 541C440 541 400 541 360 541C320 541 280 541 240 541C200 541 160 541 120 541C80 541 40 541 20 541L0 541Z" fill="#038373"></path></svg>